<svg width="365" height="592" viewBox="0 0 365 592" fill="none" xmlns="http://www.w3.org/2000/svg">
<path d="M171.609 591.747C237.57 591.747 291.041 588.667 291.041 584.869C291.041 581.07 237.57 577.991 171.609 577.991C105.649 577.991 52.1777 581.07 52.1777 584.869C52.1777 588.667 105.649 591.747 171.609 591.747Z" fill="#D1D3D4"/>
<path d="M38.4172 283.1C37.7529 283.954 35.5227 331.577 33.0791 334.02C26.4361 340.66 27.2902 326.905 27.2902 326.905C27.2902 326.905 14.5499 354.677 7.14765 352.566C-6.32815 348.724 7.6696 316.564 11.1097 310.042C14.3838 297.33 14.8108 271.93 14.8108 271.93" fill="white"/>
<path d="M7.93061 353.846C7.55442 353.846 7.17978 353.798 6.81553 353.704C5.58447 353.365 4.44883 352.746 3.49788 351.894C2.54693 351.042 1.80659 349.981 1.33506 348.795C-3.07779 338.454 6.93415 315.473 9.99467 309.615C13.1501 297.14 13.6246 272.167 13.6246 271.906C13.6369 271.593 13.7697 271.298 13.9953 271.081C14.2209 270.865 14.5217 270.744 14.8346 270.744C14.9913 270.744 15.1465 270.775 15.2907 270.837C15.4349 270.898 15.5653 270.988 15.6738 271.101C15.7824 271.214 15.867 271.348 15.9226 271.494C15.9781 271.641 16.0035 271.797 15.9971 271.953C15.9971 272.997 15.5226 297.638 12.2485 310.327C12.2619 310.413 12.2619 310.501 12.2485 310.588C9.56761 315.71 -0.420609 338.407 3.61264 347.87C3.94994 348.731 4.48387 349.501 5.1718 350.118C5.85973 350.736 6.6826 351.184 7.57471 351.427C11.9876 352.684 21.1929 337.553 26.2937 326.407C26.408 326.151 26.6088 325.945 26.8606 325.824C27.1123 325.702 27.3989 325.673 27.6698 325.742C27.9368 325.817 28.171 325.979 28.3346 326.203C28.4981 326.427 28.5815 326.699 28.5713 326.976C28.3578 330.201 28.8798 334.091 29.9237 334.612C30.2321 334.755 31.0388 334.47 32.2962 333.189C33.6485 331.126 35.2618 308.619 36.1396 296.524C37.1124 282.934 37.1598 282.839 37.5631 282.294C37.7554 282.046 38.0381 281.884 38.3494 281.844C38.6607 281.804 38.9751 281.889 39.2239 282.08C39.429 282.242 39.5751 282.467 39.6394 282.72C39.7038 282.973 39.6828 283.24 39.5797 283.48C39.3662 284.428 38.9392 290.357 38.4884 296.619C36.7565 321.189 35.6177 333.166 33.9806 334.802C32.3436 336.439 30.3507 337.364 28.9272 336.699C28.1256 336.138 27.4703 335.393 27.0162 334.527C26.5621 333.66 26.3225 332.697 26.3175 331.719C22.2842 339.711 14.2652 353.846 7.93061 353.846Z" fill="#231F20"/>
<path d="M211.586 176.66L240.056 164.304C240.056 164.304 245.75 150.62 251.42 148.936C258.128 147.579 264.922 146.692 271.753 146.28C273.607 147.61 275.015 149.472 275.79 151.618C276.565 153.765 276.671 156.096 276.094 158.304C274.41 166.628 263.401 180.005 248.028 183.325L219.937 208.037" fill="white"/>
<path d="M219.937 209.223C219.767 209.222 219.599 209.185 219.444 209.116C219.289 209.046 219.15 208.946 219.036 208.82C218.932 208.704 218.854 208.569 218.804 208.422C218.754 208.275 218.734 208.12 218.745 207.965C218.756 207.81 218.798 207.659 218.868 207.521C218.938 207.383 219.036 207.26 219.154 207.16L247.197 182.447C247.351 182.307 247.539 182.209 247.743 182.163C262.761 178.914 273.318 165.846 274.884 158.067C275.386 156.153 275.321 154.135 274.698 152.258C274.074 150.38 272.919 148.724 271.373 147.489C264.748 147.879 258.159 148.743 251.657 150.074C247.458 151.331 242.595 161.102 241.076 164.755C240.954 165.043 240.724 165.273 240.436 165.395L211.966 177.751C211.676 177.877 211.349 177.883 211.055 177.767C210.761 177.652 210.526 177.424 210.4 177.135C210.274 176.845 210.268 176.518 210.384 176.224C210.5 175.931 210.727 175.695 211.017 175.57L238.965 163.403C240.127 160.723 245.252 149.458 250.827 147.798C257.626 146.407 264.516 145.503 271.444 145.094C271.693 145.075 271.941 145.132 272.156 145.26C274.226 146.708 275.804 148.753 276.677 151.123C277.551 153.493 277.679 156.073 277.043 158.517C275.335 167.103 264.422 180.787 248.383 184.416L220.554 208.939C220.379 209.089 220.165 209.188 219.937 209.223Z" fill="#231F20"/>
<path d="M269.356 129.251L234.077 174.218L254.671 176.661L287.387 132.927L269.356 129.251Z" fill="#231F20"/>
<path d="M254.671 177.917H254.528L233.935 175.546C233.728 175.521 233.532 175.442 233.365 175.317C233.198 175.192 233.068 175.026 232.986 174.834C232.901 174.641 232.871 174.427 232.9 174.218C232.93 174.008 233.017 173.811 233.152 173.649L268.431 128.587C268.565 128.414 268.745 128.282 268.951 128.206C269.156 128.131 269.379 128.115 269.594 128.16L287.648 131.836C287.841 131.876 288.021 131.965 288.17 132.094C288.32 132.222 288.434 132.387 288.502 132.572C288.576 132.755 288.6 132.955 288.571 133.151C288.542 133.347 288.461 133.532 288.336 133.686L255.62 177.372C255.514 177.53 255.374 177.661 255.209 177.756C255.044 177.85 254.86 177.906 254.671 177.917ZM236.307 173.364L254.125 175.475L285.347 133.781L269.855 130.484L236.307 173.364Z" fill="#231F20"/>
<path d="M270.471 130.129L239.463 169.617L253.176 171.633L283.734 132.927L270.471 130.129Z" fill="white"/>
<path d="M234.077 201.634L220.103 169.237L150.043 201.634L157.161 257.534C157.161 257.534 220.151 219.967 234.077 201.634Z" fill="#EE5007"/>
<path d="M229.048 510.968C229.048 510.968 243.971 547.776 242.618 547.753C241.266 547.729 209.071 552.852 209.071 552.852C209.071 552.852 194.385 522.661 194.836 522.02C195.287 521.38 229.048 510.968 229.048 510.968Z" fill="white"/>
<path d="M209.071 554.038C208.849 554.038 208.631 553.976 208.442 553.859C208.253 553.741 208.101 553.573 208.003 553.373C193.057 522.542 193.341 522.115 193.768 521.427C194.196 520.74 194.338 520.336 228.763 509.83C229.046 509.748 229.35 509.773 229.617 509.9C229.883 510.027 230.094 510.246 230.21 510.518C244.872 546.709 244.16 547.753 243.71 548.464C243.598 548.638 243.443 548.78 243.26 548.876C243.077 548.971 242.872 549.017 242.666 549.01C241.408 549.01 222.025 552.069 209.332 554.085L209.071 554.038ZM196.188 522.637C197.683 526.408 204.895 541.61 209.759 551.547C215.904 550.551 235.857 547.373 241.337 546.685C240.175 542.227 233.128 524.273 228.336 512.415C216.995 515.878 200.103 521.166 196.188 522.637Z" fill="#231F20"/>
<path d="M242.618 547.753C242.618 547.753 295.549 551.69 296.972 561.366C298.396 571.042 217.731 584.869 217.731 584.869L209.071 552.852L242.618 547.753Z" fill="#231F20"/>
<path d="M217.731 586.031C217.473 586.035 217.221 585.953 217.015 585.799C216.809 585.644 216.66 585.426 216.592 585.177L207.932 553.16C207.884 553.001 207.871 552.834 207.896 552.67C207.921 552.505 207.982 552.349 208.075 552.211C208.164 552.072 208.282 551.953 208.422 551.863C208.561 551.773 208.717 551.714 208.881 551.69L242.428 546.567H242.713C251.705 547.231 296.664 551.097 298.135 561.2C299.606 571.303 237.114 582.734 217.944 586.031H217.731ZM210.613 553.824L218.585 583.47C256.545 576.9 296.569 566.726 295.786 561.485C295.311 558.117 280.436 551.713 242.666 548.891L210.613 553.824Z" fill="#231F20"/>
<path d="M118.109 503.023L102.807 516.115L81.8577 487.442L103.993 469.559L118.109 503.023Z" fill="white"/>
<path d="M102.807 517.301C102.643 517.285 102.484 517.235 102.341 517.153C102.198 517.071 102.073 516.96 101.977 516.826L81.0274 488.177C80.8434 487.93 80.7628 487.621 80.8027 487.315C80.8425 487.01 80.9997 486.732 81.2409 486.54L103.376 468.658C103.518 468.536 103.688 468.453 103.87 468.415C104.053 468.378 104.243 468.388 104.42 468.445C104.6 468.487 104.766 468.572 104.907 468.691C105.047 468.811 105.157 468.962 105.227 469.132L119.462 502.596C119.553 502.828 119.569 503.083 119.51 503.325C119.45 503.567 119.318 503.785 119.13 503.948L103.59 517.063C103.365 517.233 103.088 517.317 102.807 517.301ZM83.4948 487.655L103.021 514.383L116.686 502.691L103.519 471.48L83.4948 487.655Z" fill="#231F20"/>
<path d="M102.807 516.115C102.807 516.115 113.507 571.256 104.397 569.358C95.2861 567.461 58.8208 506.747 58.8208 506.747L81.8578 487.442L102.807 516.115Z" fill="#231F20"/>
<path d="M104.871 570.568C104.634 570.591 104.396 570.591 104.159 570.568C94.8352 568.623 61.4542 513.648 57.8005 507.411C57.6608 507.167 57.6105 506.882 57.6581 506.605C57.7057 506.328 57.8483 506.076 58.0615 505.893L81.0985 486.611C81.2068 486.493 81.3387 486.397 81.4857 486.332C81.6327 486.267 81.7917 486.233 81.9526 486.232C82.1134 486.248 82.2688 486.299 82.4081 486.381C82.5474 486.462 82.6672 486.574 82.7592 486.706L103.732 515.356C103.829 515.498 103.894 515.66 103.922 515.83C103.922 515.949 106.294 527.688 107.765 540.14C110.968 565.659 107.931 568.599 106.935 569.619C106.674 569.911 106.357 570.145 106.002 570.308C105.647 570.471 105.262 570.56 104.871 570.568ZM60.3628 506.984C74.9537 531.222 98.3228 566.892 104.657 568.196C104.775 568.229 104.899 568.228 105.016 568.195C105.133 568.161 105.239 568.096 105.322 568.007C109.189 564.188 105.179 534.566 101.715 516.589L81.6441 489.173L60.3628 506.984Z" fill="#231F20"/>
<path d="M165.844 253.502C165.844 253.502 257.019 381.951 257.209 393.429C257.636 415.77 118.916 512.154 118.916 512.154L95.5469 469.63L180.554 393.121L100.671 247.857L165.844 253.502Z" fill="#231F20"/>
<path d="M118.916 513.364H118.655C118.491 513.331 118.337 513.261 118.205 513.158C118.073 513.055 117.967 512.922 117.896 512.771L94.503 470.295C94.3731 470.06 94.3281 469.788 94.3756 469.525C94.4232 469.261 94.5604 469.022 94.764 468.848L179.059 392.955L99.6276 248.522C99.5212 248.335 99.4684 248.123 99.4751 247.909C99.4818 247.694 99.5478 247.486 99.6657 247.307C99.7836 247.127 99.9489 246.984 100.143 246.893C100.337 246.802 100.553 246.766 100.766 246.79L165.939 252.34C166.108 252.36 166.271 252.414 166.418 252.5C166.565 252.585 166.693 252.701 166.793 252.838C176.283 266.024 258.182 381.927 258.395 393.453C258.822 416.174 125.274 509.237 119.604 513.174C119.398 513.304 119.159 513.37 118.916 513.364ZM97.0179 469.963L119.319 510.47C125.44 506.178 156.686 484.192 187.505 460.262C247.339 413.778 256.141 398.481 256.047 393.477C255.88 384.393 190.708 290.618 165.18 254.64L102.759 249.304L181.598 392.623C181.726 392.856 181.772 393.125 181.729 393.387C181.686 393.65 181.556 393.89 181.36 394.07L97.0179 469.963Z" fill="#231F20"/>
<path d="M75.1672 267.637L197.541 541.017L244.35 521.593L148.525 253.099L75.1672 267.637Z" fill="#231F20"/>
<path d="M197.541 542.203C197.313 542.202 197.09 542.134 196.9 542.008C196.71 541.881 196.562 541.702 196.473 541.491L74.0996 268.04C74.0182 267.878 73.9758 267.7 73.9758 267.518C73.9758 267.337 74.0182 267.159 74.0996 266.997C74.18 266.841 74.2941 266.704 74.4336 266.598C74.5731 266.491 74.7345 266.417 74.9062 266.38L148.383 251.937C148.661 251.885 148.949 251.932 149.196 252.071C149.443 252.21 149.634 252.431 149.735 252.696L245.56 521.19C245.662 521.477 245.65 521.792 245.527 522.07C245.403 522.348 245.177 522.568 244.896 522.684L198.086 542.108C197.918 542.192 197.728 542.225 197.541 542.203ZM76.8517 268.514L198.205 539.476L242.927 520.929L147.789 254.451L76.8517 268.514Z" fill="#231F20"/>
<path d="M214.552 434.483C214.308 434.483 214.07 434.407 213.871 434.267C213.671 434.127 213.52 433.929 213.437 433.7L158.537 285.069C158.468 284.884 158.447 284.685 158.476 284.49C158.505 284.295 158.583 284.11 158.703 283.954L168.193 271.123C168.386 270.877 168.666 270.715 168.976 270.67C169.285 270.626 169.6 270.703 169.854 270.886C169.98 270.978 170.087 271.094 170.169 271.227C170.251 271.36 170.305 271.508 170.329 271.662C170.354 271.816 170.347 271.974 170.31 272.126C170.273 272.277 170.207 272.42 170.115 272.546L161.004 284.832L215.572 432.87C215.629 433.015 215.656 433.169 215.652 433.324C215.648 433.48 215.613 433.633 215.549 433.774C215.485 433.916 215.393 434.043 215.278 434.148C215.164 434.254 215.03 434.335 214.884 434.388C214.78 434.44 214.668 434.473 214.552 434.483Z" fill="white"/>
<path d="M112.202 78.3082C111.522 78.4461 110.819 78.4243 110.148 78.2445C109.478 78.0647 108.858 77.7318 108.339 77.272C107.819 76.8122 107.413 76.238 107.153 75.5947C106.893 74.9514 106.786 74.2566 106.84 73.5649L105.44 49.8484C104.682 42.678 104.938 35.4366 106.199 28.3375C107.718 21.5546 112.012 14.5582 118.821 13.2538C121.194 12.8269 123.566 13.0878 125.939 12.4949C130.28 11.3802 133.222 7.49069 136.9 4.92931C139.816 2.93305 143.2 1.72644 146.722 1.42717C150.244 1.1279 153.783 1.74619 156.995 3.22172C158.669 4.14932 160.414 4.94236 162.214 5.59337C167.956 7.22981 173.721 3.22172 179.652 2.74739C188.62 1.94103 196.544 9.24571 200.198 17.4516C205.156 28.5984 202.95 44.0853 192.036 49.4926C183.448 53.7379 174.433 51.1528 165.559 51.556C156.235 51.9591 152.06 58.9555 145.227 64.3629C138.765 69.5835 131.112 73.1274 122.949 74.6796C119.913 75.2013 118.94 76.5294 116.211 77.4307C114.923 77.9118 113.573 78.2073 112.202 78.3082Z" fill="white"/>
<path d="M111.775 79.4229C110.989 79.4933 110.197 79.3968 109.45 79.1397C108.704 78.8826 108.021 78.4706 107.445 77.9309C106.869 77.3912 106.414 76.7359 106.109 76.0079C105.805 75.28 105.658 74.496 105.678 73.7072L104.254 49.8484C103.484 42.5669 103.747 35.2132 105.037 28.0055C106.579 21.2226 110.945 13.4673 118.608 12.0205C119.715 11.8418 120.832 11.731 121.953 11.6885C123.166 11.6795 124.374 11.5444 125.559 11.2853C128.252 10.3505 130.69 8.79927 132.677 6.75549C133.815 5.78311 135.049 4.7633 136.212 3.88579C139.302 1.74464 142.9 0.451363 146.647 0.135079C150.394 -0.181205 154.158 0.490573 157.564 2.08334L159.272 2.96085C160.331 3.58345 161.452 4.09224 162.618 4.4787C165.996 5.0508 169.468 4.6221 172.606 3.24545C174.872 2.44203 177.219 1.88542 179.605 1.58529C189.498 0.707778 197.659 8.70024 201.36 17.001C206.509 28.5747 204.231 44.8442 192.63 50.5836C186.39 53.6904 179.913 53.311 173.65 52.9552C170.998 52.7501 168.337 52.6868 165.678 52.7655C159.249 53.0501 155.476 56.6313 151.087 60.7817C149.498 62.2995 147.861 63.8648 146.01 65.3115C139.362 70.6994 131.478 74.3506 123.068 75.9365C121.801 76.1765 120.587 76.6424 119.486 77.3121C118.539 77.8441 117.547 78.2886 116.52 78.6402C115.153 79.1269 113.722 79.4144 112.273 79.494L111.775 79.4229ZM148.383 2.41537C144.488 2.38422 140.677 3.5517 137.469 5.75939C136.308 6.61786 135.199 7.54443 134.148 8.53422C131.906 10.8161 129.159 12.5385 126.129 13.5621C124.786 13.8459 123.42 14.0047 122.048 14.0365C121.039 14.0798 120.034 14.1748 119.035 14.3211C112.487 15.5543 108.691 22.4558 107.315 28.551C106.081 35.5419 105.842 42.6719 106.603 49.7298L108.05 73.5649C108.192 76.1025 109.45 77.1698 112.178 77.0275C113.416 76.9503 114.638 76.7029 115.808 76.2923C116.706 75.9897 117.572 75.6005 118.394 75.1302C119.714 74.328 121.169 73.7735 122.688 73.4937C130.663 71.998 138.139 68.5422 144.444 63.4379C146.224 62.0387 147.813 60.5208 149.379 59.0504C153.887 54.7577 158.157 50.7022 165.465 50.3701C168.21 50.2906 170.958 50.3539 173.697 50.5599C179.913 50.9156 185.773 51.2476 191.467 48.4254C201.835 43.3026 203.78 28.5272 199.083 17.9497C195.833 10.645 188.383 3.15058 179.7 3.93322C177.482 4.21795 175.303 4.74279 173.199 5.49851C169.625 7.02468 165.677 7.45395 161.858 6.73177C160.527 6.3029 159.246 5.73033 158.039 5.02418C157.493 4.73958 156.971 4.45499 156.425 4.21782C153.915 3.01789 151.165 2.40167 148.383 2.41537Z" fill="#231F20"/>
<path d="M167.125 55.8961C167.125 55.8961 173.555 71.8573 171.016 74.3712C168.478 76.8852 162.618 73.5649 162.618 73.5649" fill="white"/>
<path d="M168.288 76.5294C166.068 76.3934 163.905 75.7698 161.953 74.7033C161.68 74.5484 161.479 74.2937 161.39 73.9928C161.301 73.6919 161.333 73.3684 161.479 73.0905C161.551 72.9541 161.65 72.8333 161.769 72.7354C161.888 72.6374 162.026 72.5642 162.174 72.5201C162.322 72.4759 162.477 72.4617 162.631 72.4782C162.784 72.4947 162.933 72.5416 163.068 72.6162C164.421 73.3514 168.644 74.9879 170.186 73.5412C171.23 72.4976 169.284 64.4577 166.034 56.3467C165.918 56.0542 165.922 55.7275 166.047 55.4384C166.171 55.1493 166.406 54.9215 166.698 54.8051C166.991 54.6888 167.318 54.6933 167.607 54.8179C167.896 54.9424 168.124 55.1767 168.24 55.4692C170.257 60.4734 174.646 72.4502 171.87 75.225C171.392 75.6725 170.828 76.0186 170.212 76.2428C169.597 76.4669 168.942 76.5644 168.288 76.5294Z" fill="#231F20"/>
<path d="M168.952 36.9229C173.887 42.9706 170.067 52.8129 168.668 59.4536C166.675 68.7504 164.476 78.0157 162.072 87.2493C160.53 93.0836 145.203 90.0716 142.855 87.7473L140.269 107.598C140.269 107.598 134.456 117.678 123.258 109.424C112.06 101.171 110.802 92.6804 110.802 92.6804L117.35 65.9044C117.35 65.9044 127.457 68.0626 135.927 57.2242C144.397 46.3858 147.932 27.8395 147.932 27.8395C147.932 27.8395 164.16 31.0412 168.952 36.9229Z" fill="white"/>
<path d="M131.633 113.883C128.308 113.727 125.122 112.504 122.546 110.397C111.111 101.954 109.687 93.2496 109.64 92.8701C109.616 92.7208 109.616 92.5688 109.64 92.4195L116.212 65.6436C116.28 65.3459 116.462 65.087 116.72 64.9228C116.977 64.7586 117.289 64.7023 117.588 64.766C117.991 64.766 127.078 66.5922 134.978 56.5364C143.163 46.0537 146.841 27.8157 146.841 27.626C146.916 27.318 147.102 27.0482 147.362 26.8671C147.49 26.7817 147.634 26.7229 147.784 26.6944C147.935 26.6659 148.09 26.6681 148.24 26.7011C148.928 26.8196 164.848 30.0451 169.972 36.1877C174.433 41.6662 172.345 49.6823 170.779 56.1332C170.471 57.3902 170.162 58.5049 169.925 59.6907C167.932 68.9876 165.702 78.3793 163.306 87.5576C163 88.5252 162.433 89.3895 161.667 90.055C160.901 90.7205 159.965 91.1613 158.964 91.3285C153.892 92.2488 148.661 91.6889 143.899 89.7158L141.526 107.764C141.504 107.914 141.456 108.058 141.384 108.191C139.689 110.925 136.989 112.884 133.863 113.646C133.13 113.804 132.383 113.884 131.633 113.883ZM112.012 92.7278C112.297 94.0322 114.385 101.384 123.875 108.499C125.136 109.604 126.617 110.428 128.22 110.919C129.823 111.409 131.512 111.555 133.175 111.345C135.571 110.754 137.655 109.28 139.011 107.219L141.574 87.6287C141.605 87.4081 141.697 87.2005 141.84 87.0289C141.982 86.8573 142.169 86.7284 142.38 86.6564C142.589 86.5873 142.812 86.5773 143.025 86.6276C143.239 86.6778 143.435 86.7863 143.59 86.941C148.081 89.2012 153.185 89.9419 158.134 89.0517C159.676 88.6486 160.506 87.9371 160.838 86.9647C163.211 77.8338 165.441 68.4895 167.41 59.2164C167.647 58.078 167.956 56.8447 168.288 55.564C169.783 49.6349 171.657 42.2591 167.956 37.7055C164.255 33.1519 152.463 30.1162 148.739 29.2624C147.813 33.6026 144.136 48.5202 136.757 57.9831C129.379 67.446 121.17 67.4697 118.157 67.2563L112.012 92.7278Z" fill="#231F20"/>
<path d="M163.282 80.2529C163.282 80.2529 155.12 83.2175 152.795 74.9404L163.282 80.2529Z" fill="white"/>
<path d="M160.032 81.9368C158.628 81.9563 157.238 81.6477 155.975 81.0356C154.888 80.4349 153.941 79.6106 153.197 78.6171C152.453 77.6237 151.928 76.4837 151.657 75.2725C151.572 74.958 151.615 74.6226 151.778 74.3402C151.94 74.0578 152.208 73.8514 152.523 73.7665C152.837 73.6815 153.173 73.725 153.455 73.8874C153.738 74.0497 153.944 74.3176 154.029 74.6321C154.214 75.5268 154.586 76.3722 155.122 77.1122C155.658 77.8522 156.345 78.4701 157.137 78.9248C158.979 79.6883 161.033 79.7641 162.926 79.1383C163.073 79.0837 163.228 79.0586 163.384 79.0643C163.541 79.0699 163.694 79.1063 163.836 79.1713C163.978 79.2362 164.106 79.3285 164.213 79.4429C164.319 79.5573 164.402 79.6915 164.456 79.8379C164.511 79.9843 164.536 80.14 164.53 80.296C164.525 80.4521 164.488 80.6056 164.423 80.7476C164.358 80.8897 164.266 81.0176 164.152 81.1239C164.037 81.2303 163.903 81.3131 163.756 81.3676C162.55 81.7426 161.295 81.9344 160.032 81.9368Z" fill="#231F20"/>
<path d="M148.003 58.2203C148.229 55.8275 147.777 53.4194 146.698 51.2714C146.115 49.5164 145.267 47.8608 144.183 46.362C143.639 45.6025 142.929 44.9771 142.107 44.5332C141.285 44.0894 140.372 43.8388 139.438 43.8007C138.616 43.8369 137.811 44.0457 137.076 44.4134C136.34 44.7812 135.69 45.2997 135.168 45.9351C134.143 47.2204 133.421 48.7201 133.056 50.3227C132.184 53.8029 132.242 57.4513 133.225 60.902C134.207 64.3527 136.08 67.4846 138.655 69.9837L138.252 69.3196" fill="white"/>
<path d="M138.703 71.1932C138.401 71.1914 138.112 71.0724 137.896 70.8612C135.175 68.2104 133.195 64.8932 132.154 61.2399C131.114 57.5866 131.048 53.7245 131.965 50.0381C132.399 48.3027 133.209 46.6836 134.337 45.2948C134.963 44.5254 135.746 43.8988 136.634 43.457C137.522 43.0152 138.494 42.7685 139.486 42.7334C140.587 42.793 141.663 43.0911 142.638 43.607C143.613 44.123 144.464 44.8445 145.132 45.7217C146.276 47.3295 147.179 49.0951 147.813 50.9631C148.962 53.3175 149.431 55.946 149.166 58.5523C149.14 58.7061 149.084 58.8532 149 58.9848C148.916 59.1164 148.807 59.2299 148.679 59.3184C148.55 59.4069 148.405 59.4687 148.253 59.5C148.1 59.5314 147.942 59.5317 147.79 59.501C147.482 59.4433 147.209 59.2664 147.031 59.0087C146.854 58.751 146.785 58.4335 146.841 58.1254C147.005 55.9575 146.579 53.7855 145.607 51.8406C145.058 50.1864 144.258 48.6266 143.234 47.2158C142.786 46.6226 142.219 46.1288 141.569 45.7655C140.92 45.4022 140.203 45.1773 139.462 45.1051C138.809 45.1367 138.171 45.3075 137.59 45.6061C137.009 45.9048 136.499 46.3242 136.093 46.8364C135.183 47.9808 134.549 49.3201 134.243 50.7496C133.483 53.8018 133.48 56.993 134.232 60.0469C134.985 63.1008 136.47 65.9254 138.56 68.2761C138.714 68.3112 138.859 68.3778 138.985 68.4717C139.112 68.5656 139.218 68.6847 139.296 68.8216L139.699 69.4856C139.845 69.7319 139.899 70.022 139.851 70.3043C139.804 70.5865 139.657 70.8427 139.438 71.0272C139.215 71.1551 138.959 71.2129 138.703 71.1932Z" fill="#231F20"/>
<path d="M142.855 87.7948C142.855 87.7948 135.405 83.7155 132.843 77.5018C132.843 77.5018 130.47 91.7317 141.787 98.4435L142.855 87.7948Z" fill="#231F20"/>
<path d="M141.787 99.653C141.578 99.6487 141.374 99.5916 141.194 99.487C129.331 92.5381 131.704 77.5018 131.704 77.3358C131.749 77.0824 131.875 76.8506 132.063 76.6752C132.252 76.4998 132.492 76.3903 132.748 76.3634C133.003 76.3325 133.261 76.3852 133.483 76.5135C133.706 76.6418 133.881 76.8388 133.982 77.0749C136.354 82.8143 143.472 86.7512 143.472 86.7987C143.676 86.9122 143.842 87.0824 143.952 87.2886C144.061 87.4948 144.109 87.7282 144.088 87.9608L142.997 98.5858C142.98 98.7822 142.911 98.9707 142.799 99.1329C142.687 99.295 142.534 99.4252 142.356 99.5107C142.183 99.6092 141.986 99.6585 141.787 99.653ZM133.792 81.5573C133.767 84.4073 134.396 87.225 135.63 89.7944C136.864 92.3638 138.67 94.6166 140.909 96.3802L141.716 88.4588C138.675 86.6325 135.99 84.2701 133.792 81.4862V81.5573Z" fill="#231F20"/>
<path d="M164.399 48.8577C165.081 47.099 165.079 45.4585 164.395 45.1933C163.711 44.9282 162.603 46.1389 161.921 47.8975C161.239 49.6562 161.241 51.2967 161.925 51.5619C162.609 51.827 163.717 50.6163 164.399 48.8577Z" fill="#231F20"/>
<path d="M94.8591 94.4354C94.8591 94.4354 136.141 96.0956 146.722 118.437C157.303 140.777 153.839 217.382 159.96 223.833C166.082 230.284 180.649 261.779 180.174 263.083C179.7 264.388 69.7817 276.317 69.7817 276.317C69.7817 276.317 68.548 251.273 63.4472 218.117C58.3463 184.961 64.3487 90.4985 94.8591 94.4354Z" fill="#EE5007"/>
<path d="M113.103 315.023C112.834 315.032 112.571 314.938 112.368 314.762C112.12 314.569 111.958 314.287 111.918 313.976C111.878 313.665 111.963 313.35 112.154 313.102C127.077 294.271 119.414 284.262 119.082 283.835C118.982 283.716 118.906 283.579 118.86 283.43C118.814 283.281 118.798 283.125 118.814 282.97C118.829 282.815 118.876 282.665 118.95 282.529C119.025 282.392 119.126 282.272 119.248 282.175C119.491 281.979 119.802 281.886 120.113 281.917C120.424 281.948 120.71 282.1 120.909 282.341C121.289 282.816 130.185 294.199 114.029 314.572C113.919 314.713 113.779 314.827 113.619 314.905C113.458 314.983 113.282 315.024 113.103 315.023Z" fill="white"/>
<path d="M81.1222 94.3168C81.1222 94.3168 17.8951 162.976 7.14771 291.52L42.7352 290.784C42.7352 290.784 58.5361 224.71 102.641 152.161L81.1222 94.3168Z" fill="#EE5007"/>
<path d="M176.378 253.217H176.141C175.895 253.161 175.672 253.031 175.502 252.845C175.333 252.658 175.224 252.424 175.192 252.174C174.789 251.035 171.016 244.513 167.695 238.774C162.95 230.592 158.062 222.172 157.113 219.587C156.046 216.647 154.741 195.871 152.938 168.834C152.179 156.976 151.514 146.778 151.135 142.936C149.992 134.757 148.135 126.694 145.583 118.84C145.486 118.525 145.517 118.185 145.67 117.893C145.824 117.602 146.087 117.384 146.402 117.286C146.716 117.189 147.057 117.22 147.348 117.374C147.639 117.527 147.858 117.79 147.956 118.104C150.571 126.117 152.461 134.348 153.602 142.698C154.005 146.588 154.67 156.928 155.405 168.787C156.686 188.732 158.418 216.03 159.462 218.876C160.34 221.248 165.393 229.975 169.877 237.707C177.849 251.486 177.825 251.676 177.659 252.411C177.573 252.674 177.398 252.898 177.164 253.045C176.93 253.192 176.652 253.253 176.378 253.217Z" fill="#231F20"/>
<path d="M47.9784 269.7C47.8529 269.723 47.7243 269.723 47.5988 269.7C47.3027 269.593 47.0601 269.374 46.9228 269.091C46.7854 268.807 46.7641 268.481 46.8633 268.182C47.1718 267.329 77.7058 181.475 109.568 140.659C109.663 140.535 109.782 140.432 109.918 140.355C110.054 140.278 110.204 140.23 110.359 140.212C110.514 140.194 110.671 140.208 110.82 140.252C110.97 140.296 111.109 140.37 111.229 140.469C111.353 140.564 111.456 140.683 111.533 140.819C111.61 140.954 111.659 141.104 111.676 141.259C111.694 141.414 111.68 141.571 111.636 141.72C111.592 141.87 111.518 142.009 111.419 142.129C79.7224 182.661 49.4019 268.04 49.1172 268.918C49.0272 269.147 48.8707 269.344 48.6677 269.483C48.4648 269.623 48.2247 269.698 47.9784 269.7Z" fill="#231F20"/>
<path d="M259.677 171.633C259.866 163.095 261.456 154.154 266.794 147.537C268.17 145.877 270.329 144.264 272.274 145.165C272.926 145.565 273.472 146.117 273.864 146.774C274.257 147.431 274.485 148.172 274.528 148.936C274.581 150.456 274.894 151.956 275.454 153.371" fill="white"/>
<path d="M259.676 172.818C259.521 172.815 259.367 172.782 259.224 172.719C259.082 172.657 258.952 172.567 258.845 172.454C258.737 172.342 258.652 172.21 258.595 172.065C258.538 171.919 258.511 171.765 258.514 171.609C258.751 160.77 261.171 152.636 265.94 146.801C268.123 144.121 270.685 143.102 272.844 144.074C273.702 144.541 274.423 145.225 274.935 146.057C275.447 146.889 275.732 147.841 275.762 148.817C275.833 149.209 275.88 149.605 275.904 150.003C275.948 151 276.174 151.98 276.569 152.897C276.711 153.174 276.739 153.496 276.645 153.793C276.552 154.091 276.346 154.339 276.07 154.486C275.932 154.56 275.78 154.606 275.624 154.621C275.468 154.636 275.31 154.62 275.16 154.574C275.01 154.527 274.87 154.452 274.75 154.351C274.629 154.25 274.53 154.127 274.457 153.988C273.932 152.812 273.627 151.55 273.556 150.264C273.556 149.908 273.556 149.529 273.413 149.173C273.295 148.319 272.915 146.801 271.871 146.327C270.827 145.853 268.858 147.062 267.79 148.39C263.354 153.822 261.1 161.458 260.886 171.751C260.851 172.047 260.709 172.319 260.485 172.516C260.262 172.713 259.974 172.821 259.676 172.818Z" fill="#231F20"/>
<path d="M88.3347 69.5331C85.1965 67.2436 81.6179 65.6286 77.8245 64.7898C72.672 64.3819 67.5246 65.6371 63.1388 68.371C57.0022 71.3791 51.7959 75.9935 48.0734 81.7233C46.2475 84.5977 45.1713 87.8837 44.9434 91.281C44.7154 94.6783 45.3429 98.0785 46.7685 101.171C48.4248 103.946 50.6672 106.326 53.339 108.144C56.0107 109.963 59.0475 111.177 62.2372 111.701C68.6172 112.725 75.1084 112.861 81.5256 112.104C87.6818 111.606 93.8651 111.535 100.031 111.891C112.677 112.839 124.847 116.99 137.279 119.385C145.132 120.879 142.024 112.579 139.059 109.495C134.029 104.42 128.778 99.5819 123.305 94.9809C112.251 85.7003 100.566 77.1973 88.3347 69.5331Z" fill="#EE5007"/>
<path d="M117.777 113.883C117.551 113.875 117.331 113.81 117.137 113.693C110.299 109.3 102.416 106.803 94.2951 106.457C86.1743 106.111 78.1074 107.929 70.9205 111.725C70.6566 111.839 70.3602 111.853 70.0865 111.765C69.8128 111.677 69.5804 111.493 69.4325 111.246C69.2846 111 69.2312 110.708 69.2823 110.425C69.3335 110.143 69.4856 109.888 69.7105 109.709C77.276 105.677 85.7806 103.736 94.3468 104.087C102.913 104.437 111.231 107.065 118.442 111.701C118.702 111.875 118.883 112.144 118.945 112.451C119.007 112.757 118.946 113.076 118.774 113.337C118.67 113.508 118.523 113.648 118.348 113.743C118.174 113.839 117.977 113.887 117.777 113.883Z" fill="#231F20"/>
<path d="M346.415 26.5588H244.777C241.956 26.5651 239.253 27.6897 237.26 29.6861C235.267 31.6824 234.148 34.3874 234.148 37.2075V91.4234C234.161 94.2353 235.286 96.9281 237.277 98.9142C239.268 100.9 241.964 102.018 244.777 102.025H257.067V123.37L269.38 102.025H346.344C347.753 102.047 349.152 101.789 350.461 101.267C351.769 100.744 352.961 99.9677 353.967 98.9817C354.973 97.9957 355.774 96.82 356.322 95.5226C356.871 94.2252 357.156 92.8319 357.163 91.4234V37.2075C357.163 35.8011 356.884 34.4086 356.343 33.1104C355.801 31.8122 355.008 30.634 354.009 29.644C353.01 28.6539 351.824 27.8715 350.521 27.342C349.217 26.8124 347.822 26.5462 346.415 26.5588Z" fill="white"/>
<path d="M257.067 124.508C256.965 124.53 256.86 124.53 256.758 124.508C256.503 124.448 256.277 124.302 256.117 124.095C255.957 123.887 255.874 123.631 255.881 123.37V103.258H244.777C241.631 103.258 238.614 102.009 236.389 99.7847C234.165 97.5609 232.915 94.5447 232.915 91.3997V37.2075C232.915 34.0625 234.165 31.0463 236.389 28.8224C238.614 26.5986 241.631 25.3492 244.777 25.3492H346.415C349.561 25.3492 352.579 26.5986 354.803 28.8224C357.028 31.0463 358.278 34.0625 358.278 37.2075V91.4234C358.278 94.5684 357.028 97.5846 354.803 99.8084C352.579 102.032 349.561 103.282 346.415 103.282H270.116L258.087 123.939C257.984 124.117 257.835 124.264 257.655 124.364C257.476 124.464 257.272 124.514 257.067 124.508ZM244.777 27.7446C242.26 27.7446 239.847 28.7441 238.067 30.5231C236.287 32.3022 235.287 34.7152 235.287 37.2312V91.4234C235.287 93.9394 236.287 96.3524 238.067 98.1314C239.847 99.9105 242.26 100.91 244.777 100.91H257.067C257.381 100.91 257.683 101.035 257.906 101.257C258.128 101.48 258.253 101.781 258.253 102.096V118.958L268.407 101.503C268.516 101.323 268.67 101.175 268.852 101.071C269.035 100.967 269.241 100.912 269.451 100.91H346.415C348.932 100.91 351.346 99.9105 353.126 98.1314C354.905 96.3524 355.905 93.9394 355.905 91.4234V37.2075C355.905 34.6915 354.905 32.2785 353.126 30.4994C351.346 28.7203 348.932 27.7209 346.415 27.7209L244.777 27.7446Z" fill="#D1D3D4"/>
<path d="M295.478 82.1977H276.782C276.451 82.2184 276.124 82.1122 275.869 81.9007C275.613 81.6893 275.448 81.3884 275.406 81.0593C275.378 80.8896 275.385 80.716 275.426 80.549C275.467 80.3819 275.541 80.2248 275.643 80.0869C276.403 78.9722 277.162 77.8576 277.874 76.7192C279.242 74.6659 280.186 72.3597 280.649 69.9363C280.697 69.4156 280.697 68.8916 280.649 68.371V58.2677C280.631 56.3373 280.952 54.4186 281.598 52.5995C282.3 50.5203 283.516 48.6521 285.133 47.1684C286.823 45.5968 288.878 44.4718 291.112 43.8955C291.326 43.8955 291.397 43.7769 291.397 43.5635C291.397 43.35 291.397 42.4963 291.397 41.9745C291.402 40.9667 291.787 39.9979 292.475 39.2612C293.163 38.5244 294.103 38.0738 295.109 37.999C296.114 37.9242 297.111 38.2308 297.9 38.8577C298.69 39.4845 299.214 40.3857 299.369 41.3816C299.416 42.0923 299.416 42.8054 299.369 43.5161C299.369 43.7532 299.368 43.8481 299.677 43.9192C301.717 44.4379 303.608 45.4265 305.198 46.8061C306.789 48.1856 308.034 49.9178 308.835 51.8643C309.58 53.5646 309.991 55.3924 310.045 57.2479C310.045 59.1927 310.045 61.1611 310.045 63.1059C310.045 65.0507 310.045 66.5448 310.045 68.2761C310.045 70.0973 310.45 71.8957 311.231 73.5412C312.194 75.5686 313.337 77.5053 314.647 79.328L315.169 80.0869C315.307 80.2986 315.381 80.5458 315.381 80.7984C315.381 81.051 315.307 81.2982 315.169 81.5099C315.055 81.7289 314.881 81.9104 314.666 82.0324C314.451 82.1544 314.206 82.2118 313.959 82.1977H295.478ZM296.854 43.3738C296.854 42.9232 296.854 42.4488 296.854 41.9745C296.854 41.6342 296.724 41.3068 296.49 41.0597C296.256 40.8125 295.936 40.6646 295.596 40.6464C295.272 40.6244 294.952 40.724 294.697 40.9258C294.443 41.1275 294.273 41.4169 294.22 41.7373C294.185 42.2822 294.185 42.8289 294.22 43.3738H296.854Z" fill="#FFAE70"/>
<path d="M301.67 84.9014C301.16 86.0924 300.311 87.1077 299.23 87.8212C298.148 88.5346 296.88 88.915 295.584 88.915C294.288 88.915 293.021 88.5346 291.939 87.8212C290.857 87.1077 290.009 86.0924 289.499 84.9014H301.67Z" fill="#FFAE70"/>
<path d="M346.913 113.907C356.072 113.907 363.497 106.484 363.497 97.3288C363.497 88.1731 356.072 80.751 346.913 80.751C337.754 80.751 330.33 88.1731 330.33 97.3288C330.33 106.484 337.754 113.907 346.913 113.907Z" fill="white"/>
<path d="M346.913 115.092C343.401 115.092 339.967 114.052 337.046 112.102C334.125 110.152 331.847 107.381 330.501 104.138C329.154 100.894 328.799 97.3252 329.481 93.8807C330.163 90.4362 331.851 87.2709 334.331 84.7848C336.812 82.2986 339.974 80.603 343.417 79.9123C346.861 79.2215 350.433 79.5665 353.681 80.9037C356.929 82.241 359.707 84.5104 361.666 87.4254C363.624 90.3403 364.674 93.7701 364.683 97.2814C364.686 99.6172 364.229 101.931 363.338 104.09C362.447 106.249 361.139 108.212 359.488 109.866C357.838 111.52 355.879 112.833 353.721 113.729C351.563 114.626 349.25 115.089 346.913 115.092ZM346.913 81.8894C343.868 81.8894 340.891 82.7921 338.359 84.4834C335.827 86.1747 333.853 88.5786 332.688 91.3911C331.522 94.2036 331.217 97.2985 331.812 100.284C332.406 103.27 333.872 106.013 336.026 108.165C338.179 110.318 340.923 111.784 343.909 112.378C346.896 112.972 349.992 112.667 352.806 111.502C355.619 110.337 358.024 108.364 359.716 105.833C361.408 103.302 362.311 100.326 362.311 97.2814C362.292 93.2093 360.662 89.3101 357.777 86.4351C354.892 83.5602 350.987 81.943 346.913 81.9368V81.8894Z" fill="#D1D3D4"/>
<path d="M345.87 90.9016L341.884 94.1745L339.891 91.8029L346.178 86.7275H349.286V106.887H345.87V90.9016Z" fill="#D1D3D4"/>
</svg>
